<?xml version="1.0" encoding="UTF-8" standalone="no"?>
<svg xmlns="http://www.w3.org/2000/svg" xmlns:xlink="http://www.w3.org/1999/xlink" xmlns:serif="http://www.serif.com/" width="100%" height="100%" viewBox="0 0 860 231" version="1.1" xml:space="preserve" style="fill-rule:evenodd;clip-rule:evenodd;stroke-linejoin:round;stroke-miterlimit:2;">
  <path d="M118.333,36.25l0,-33.75l95.417,0l0,33.75l-31.25,0l0,190.833l-32.917,0l0,-190.833l-31.25,0Z" style="fill:#fff;fill-rule:nonzero;"></path>
  <path d="M234.167,2.5l75.416,0l0,33.75l-42.5,0l0,58.75l30.417,0l0,36.25l-30.417,0l0,61.667l42.5,-0l0,33.75l-75.416,-0l-0,-224.167Z" style="fill:#fff;fill-rule:nonzero;"></path>
  <path d="M390.417,62.5c0.416,-7.5 -0.417,-15 -2.5,-22.083c-2.084,-6.25 -5.417,-10.417 -10.834,-10.417c-8.333,0.417 -11.25,9.167 -11.25,22.5c0.834,8.75 3.334,17.083 8.334,24.167c5,8.333 11.25,17.5 17.916,27.083c7.5,10.833 14.584,22.5 21.25,34.167c5.834,10.833 9.584,22.916 10,35c0,15 -2.5,29.166 -9.583,39.583c-7.083,10.417 -18.333,17.083 -36.25,17.083c-21.25,0 -32.917,-7.916 -39.583,-20c-6.667,-12.083 -8.334,-28.333 -8.334,-45.416l32.5,-2.917c-0.416,8.75 0.417,17.5 2.917,25.833c2.083,7.5 5.833,12.084 12.917,12.084c10,-0 13.333,-10.417 13.333,-24.584c-0.833,-8.75 -3.75,-17.5 -8.333,-24.583c-2.917,-4.167 -5.417,-8.75 -8.334,-13.333c-6.25,-9.167 -13.333,-19.584 -20.833,-30.834c-7.083,-10.833 -12.5,-22.5 -16.25,-35c-1.667,-5.833 -2.917,-12.083 -2.917,-17.916c-0.416,-12.5 2.917,-25 10,-35.417c7.5,-10.833 20,-17.083 33.334,-17.083c20,-0.417 31.666,7.916 37.916,20c5.834,12.5 8.75,25.833 8.334,39.583l-33.75,2.5Z" style="fill:#fff;fill-rule:nonzero;"></path>
  <path d="M436.667,36.25l-0,-33.75l95.416,0l0,33.75l-31.25,0l0,190.833l-32.916,0l-0,-190.833l-31.25,0Z" style="fill:#fff;fill-rule:nonzero;"></path>
  <path d="M552.5,2.5l75.417,0l-0,33.75l-42.5,0l-0,58.75l30.416,0l0,36.25l-30.416,0l-0,61.667l42.5,-0l-0,33.75l-75.417,-0l0,-224.167Z" style="fill:#fff;fill-rule:nonzero;"></path>
  <path d="M712.917,227.083l-17.084,-94.583l-8.75,0l0,95l-32.916,0l-0,-225l32.916,0c39.584,0 56.25,22.5 56.25,65c0,22.5 -5.833,42.5 -18.333,51.25l21.25,108.75l-33.333,0l-0,-0.417Zm-25.834,-125.416c5.417,0.416 11.25,-1.25 15.417,-5c5,-4.167 8.75,-12.5 8.75,-28.334c-0,-15.833 -4.167,-24.583 -8.75,-28.75c-4.583,-3.333 -10,-5 -15.417,-4.583l0,66.667Z" style="fill:#fff;fill-rule:nonzero;"></path>
  <path d="M826.667,62.5c0.416,-7.5 -0.417,-15 -2.5,-22.083c-2.084,-6.25 -5.417,-10.417 -10.834,-10.417c-8.333,0.417 -11.25,9.167 -11.25,22.5c0.834,8.75 3.334,17.083 8.334,24.167c5,8.333 11.25,17.5 17.916,27.083c7.5,10.833 14.584,22.5 21.25,34.167c5.834,10.833 9.584,22.916 10,35c0,15 -2.5,29.166 -9.583,39.583c-7.083,10.417 -18.333,17.083 -36.25,17.083c-21.25,0 -32.917,-7.916 -39.583,-20c-6.667,-12.083 -8.334,-28.333 -8.334,-45.416l32.5,-2.917c-0.416,8.75 0.417,17.5 2.917,25.833c2.083,7.5 5.833,12.084 12.917,12.084c10,-0 13.333,-10.417 13.333,-24.584c-0.833,-8.75 -3.75,-17.5 -8.333,-24.583c-2.917,-4.167 -5.417,-8.75 -8.334,-13.333c-6.25,-9.167 -13.333,-19.584 -20.833,-30.834c-7.083,-10.833 -12.5,-22.5 -16.25,-35c-1.667,-5.833 -2.917,-12.083 -2.917,-17.916c-0.416,-12.5 2.917,-25 10,-35.417c7.5,-10.833 20,-17.083 33.334,-17.083c20,-0.417 31.666,7.916 37.916,20c5.834,12.5 8.75,25.833 8.334,39.583l-33.75,2.5Z" style="fill:#fff;fill-rule:nonzero;"></path>
  <path d="M118.333,227.083l-118.333,0l0,-17.5c0,-20.416 3.333,-31.666 12.083,-37.5c8.75,-5.833 23.75,-6.666 47.084,-6.666c23.333,-0 37.916,0.833 46.666,6.666c8.75,5.834 12.084,17.084 12.084,37.5l0.416,17.5Zm-17.5,-22.083c0,-7.5 -0.416,-12.083 -6.25,-14.167c-4.166,-1.25 -8.333,-2.083 -12.5,-2.083l-45.833,0c-4.167,0 -8.333,0.833 -12.5,2.083c-5.833,2.084 -6.25,6.667 -6.25,14.167l83.333,0Z" style="fill:#fff;fill-rule:nonzero;"></path>
  <path d="M0,145.833l0,-50.416l17.917,-0l-0,28.333l30.833,0l0,-20.417l19.167,0l-0,20.417l32.083,-0l0,-28.333l17.917,-0l-0,50.416l-117.917,0Z" style="fill:#fff;fill-rule:nonzero;"></path>
</svg>
